<?xml version="1.0" standalone="no"?><svg xmlns="http://www.w3.org/2000/svg" viewBox="0 0 1440 320"><path fill="#EA9ABB" fill-opacity="1" d="M0,224L34.3,240C68.6,256,137,288,206,272C274.3,256,343,192,411,176C480,160,549,192,617,186.7C685.7,181,754,139,823,117.3C891.4,96,960,96,1029,128C1097.1,160,1166,224,1234,234.7C1302.9,245,1371,203,1406,181.3L1440,160L1440,320L1405.7,320C1371.4,320,1303,320,1234,320C1165.7,320,1097,320,1029,320C960,320,891,320,823,320C754.3,320,686,320,617,320C548.6,320,480,320,411,320C342.9,320,274,320,206,320C137.1,320,69,320,34,320L0,320Z"></path></svg>